<?xml version="1.0" standalone="no"?>
<!DOCTYPE svg PUBLIC "-//W3C//DTD SVG 20010904//EN"
 "http://www.w3.org/TR/2001/REC-SVG-20010904/DTD/svg10.dtd">
<svg version="1.0" xmlns="http://www.w3.org/2000/svg"
 width="2001.000000pt" height="1201.000000pt" viewBox="0 0 2001.000000 1201.000000"
 preserveAspectRatio="xMidYMid meet">
<metadata>
Created by potrace 1.16, written by Peter Selinger 2001-2019
</metadata>
<g transform="translate(0.000000,1201.000000) scale(0.100000,-0.100000)"
fill="#000000" stroke="none">
<path d="M350 11977 c-162 -55 -275 -173 -324 -336 -15 -50 -16 -533 -16
-5642 0 -5545 0 -5587 20 -5651 48 -156 172 -280 329 -328 60 -19 95 -20 650
-20 635 0 632 0 741 55 106 54 203 172 240 293 19 62 20 94 20 858 l0 794
8000 0 8000 0 0 -794 c0 -764 1 -796 20 -858 48 -156 172 -280 329 -328 60
-19 95 -20 650 -20 635 0 632 0 741 55 106 54 203 172 240 293 20 63 20 100
20 3222 0 2077 -3 3193 -10 3261 -50 509 -212 1012 -461 1435 -160 271 -316
471 -554 709 -305 306 -588 507 -958 685 -333 160 -622 247 -1027 313 l-135
21 -3720 3 c-3685 3 -3721 3 -3785 -16 -122 -37 -241 -135 -295 -241 -59 -116
-55 59 -55 -2447 l0 -2293 -3500 0 -3500 0 0 3294 c0 3257 0 3295 -20 3358
-37 121 -134 239 -240 293 -109 55 -106 55 -744 55 -584 -1 -592 -1 -656 -23z"/>
<path d="M5220 10989 c-852 -103 -1584 -624 -1961 -1394 -122 -250 -198 -503
-235 -785 -23 -180 -15 -556 15 -729 157 -877 735 -1586 1561 -1914 141 -56
326 -108 497 -139 114 -20 159 -23 413 -23 254 0 299 3 413 23 808 145 1473
641 1831 1362 84 170 135 306 181 485 61 237 70 320 70 625 0 305 -9 388 -70
625 -95 370 -278 719 -534 1016 -321 373 -766 652 -1245 779 -221 59 -328 72
-606 76 -140 1 -289 -2 -330 -7z"/>
</g>
</svg>
