<?xml version="1.0" encoding="utf-8"?>
<!-- Generator: Adobe Illustrator 24.1.1, SVG Export Plug-In . SVG Version: 6.00 Build 0)  -->
<svg version="1.1" id="Layer_1" xmlns="http://www.w3.org/2000/svg" xmlns:xlink="http://www.w3.org/1999/xlink" x="0px" y="0px"
	 viewBox="0 0 512 512" style="enable-background:new 0 0 512 512;" xml:space="preserve">
<g id="XMLID_1_">
	<path id="XMLID_6_" d="M436.6,75.4C388.2,27,324,0,256,0S122.9,27,75.4,75.4C27,123.8,0,188,0,256s27,133.1,75.4,180.6
		C123.8,485,188,512,256,512s133.1-27,180.6-75.4C485,388.2,512,324,512,256S485,122.9,436.6,75.4z M447.8,256
		c0,41-13,80.1-35.4,110.8L145.2,99.6C176.9,77.3,215,64.2,256,64.2C362.1,64.2,447.8,149.9,447.8,256z M64.2,256
		c0-41,13-80.1,35.4-110.8l268.1,268.1c-31.7,22.3-69.8,35.4-110.8,35.4C149.9,447.8,64.2,362.1,64.2,256z"/>
</g>
</svg>
